<svg xmlns="http://www.w3.org/2000/svg" xmlns:xlink="http://www.w3.org/1999/xlink" width="500" zoomAndPan="magnify" viewBox="0 0 375 374.999991" height="500" preserveAspectRatio="xMidYMid meet" version="1.0"><path fill="#f4dc5f" d="M 205.828125 60.695312 C 205.828125 59.90625 205.753906 59.125 205.597656 58.351562 C 205.445312 57.578125 205.214844 56.828125 204.914062 56.097656 C 204.613281 55.367188 204.242188 54.675781 203.804688 54.019531 C 203.363281 53.363281 202.867188 52.757812 202.308594 52.199219 C 201.75 51.640625 201.144531 51.140625 200.488281 50.703125 C 199.832031 50.265625 199.140625 49.894531 198.410156 49.59375 C 197.679688 49.289062 196.929688 49.0625 196.15625 48.910156 C 195.382812 48.753906 194.597656 48.679688 193.808594 48.679688 L 169.773438 48.679688 L 169.773438 72.714844 L 193.808594 72.714844 C 194.597656 72.714844 195.382812 72.640625 196.15625 72.484375 C 196.929688 72.332031 197.679688 72.101562 198.410156 71.800781 C 199.140625 71.5 199.832031 71.128906 200.488281 70.691406 C 201.144531 70.253906 201.75 69.753906 202.308594 69.195312 C 202.867188 68.636719 203.363281 68.03125 203.804688 67.375 C 204.242188 66.71875 204.613281 66.027344 204.914062 65.296875 C 205.214844 64.566406 205.445312 63.816406 205.597656 63.042969 C 205.753906 62.269531 205.828125 61.484375 205.828125 60.695312 Z M 205.828125 60.695312 " fill-opacity="1" fill-rule="nonzero"/><path fill="#f4dc5f" d="M 205.828125 96.753906 C 205.828125 95.964844 205.753906 95.183594 205.597656 94.410156 C 205.445312 93.636719 205.214844 92.882812 204.914062 92.15625 C 204.613281 91.425781 204.242188 90.734375 203.804688 90.078125 C 203.363281 89.421875 202.867188 88.8125 202.308594 88.257812 C 201.75 87.699219 201.144531 87.199219 200.488281 86.761719 C 199.832031 86.324219 199.140625 85.953125 198.410156 85.652344 C 197.679688 85.347656 196.929688 85.121094 196.15625 84.964844 C 195.382812 84.8125 194.597656 84.734375 193.808594 84.734375 L 169.773438 84.734375 L 169.773438 108.773438 L 193.808594 108.773438 C 194.597656 108.773438 195.382812 108.695312 196.15625 108.542969 C 196.929688 108.390625 197.679688 108.160156 198.410156 107.859375 C 199.140625 107.558594 199.832031 107.1875 200.488281 106.75 C 201.144531 106.308594 201.75 105.8125 202.308594 105.253906 C 202.867188 104.695312 203.363281 104.089844 203.804688 103.433594 C 204.242188 102.777344 204.613281 102.082031 204.914062 101.355469 C 205.214844 100.625 205.445312 99.875 205.597656 99.101562 C 205.753906 98.324219 205.828125 97.542969 205.828125 96.753906 Z M 205.828125 96.753906 " fill-opacity="1" fill-rule="nonzero"/><path fill="#f4dc5f" d="M 104.628906 68.269531 L 84.855469 33.652344 C 84.59375 33.191406 84.277344 32.769531 83.902344 32.394531 C 83.527344 32.015625 83.113281 31.691406 82.652344 31.425781 C 82.195312 31.15625 81.707031 30.953125 81.195312 30.816406 C 80.679688 30.675781 80.160156 30.605469 79.628906 30.605469 C 79.097656 30.605469 78.574219 30.675781 78.058594 30.816406 C 77.546875 30.953125 77.0625 31.15625 76.601562 31.425781 C 76.140625 31.691406 75.726562 32.015625 75.351562 32.394531 C 74.980469 32.769531 74.660156 33.191406 74.398438 33.652344 L 54.628906 68.269531 L 79.628906 78.246094 Z M 104.628906 68.269531 " fill-opacity="1" fill-rule="nonzero"/><path fill="#f4dc5f" d="M 84.855469 123.796875 L 108.894531 81.730469 C 109.3125 80.941406 109.550781 80.097656 109.617188 79.207031 L 81.851562 90.324219 C 81.136719 90.609375 80.394531 90.75 79.628906 90.75 C 78.859375 90.75 78.117188 90.609375 77.402344 90.324219 L 49.578125 79.207031 C 49.640625 80.097656 49.882812 80.941406 50.300781 81.730469 L 74.339844 123.796875 C 74.601562 124.261719 74.917969 124.679688 75.292969 125.058594 C 75.667969 125.4375 76.082031 125.761719 76.542969 126.027344 C 77 126.296875 77.488281 126.5 78 126.636719 C 78.511719 126.773438 79.035156 126.84375 79.566406 126.84375 C 80.097656 126.84375 80.621094 126.773438 81.132812 126.636719 C 81.648438 126.5 82.132812 126.296875 82.59375 126.027344 C 83.050781 125.761719 83.46875 125.4375 83.84375 125.058594 C 84.214844 124.679688 84.535156 124.261719 84.796875 123.796875 Z M 84.855469 123.796875 " fill-opacity="1" fill-rule="nonzero"/><path fill="#f4dc5f" d="M 292.367188 125.601562 C 292.886719 125.992188 293.457031 126.289062 294.074219 126.496094 C 294.691406 126.699219 295.324219 126.804688 295.972656 126.804688 C 296.625 126.804688 297.257812 126.699219 297.875 126.496094 C 298.492188 126.289062 299.058594 125.992188 299.578125 125.601562 L 323.617188 107.570312 C 324.375 107.003906 324.964844 106.296875 325.386719 105.453125 C 325.808594 104.605469 326.023438 103.710938 326.023438 102.765625 L 326.023438 54.6875 C 326.023438 53.742188 325.808594 52.847656 325.386719 52 C 324.964844 51.152344 324.375 50.449219 323.617188 49.878906 L 299.578125 31.851562 C 299.058594 31.460938 298.492188 31.164062 297.875 30.957031 C 297.257812 30.75 296.625 30.648438 295.972656 30.648438 C 295.324219 30.648438 294.691406 30.75 294.074219 30.957031 C 293.457031 31.164062 292.886719 31.460938 292.367188 31.851562 L 268.328125 49.878906 C 267.574219 50.449219 266.984375 51.152344 266.558594 52 C 266.136719 52.847656 265.925781 53.742188 265.925781 54.6875 L 265.925781 102.765625 C 265.925781 103.710938 266.136719 104.605469 266.558594 105.453125 C 266.984375 106.296875 267.574219 107.003906 268.328125 107.570312 Z M 292.367188 125.601562 " fill-opacity="1" fill-rule="nonzero"/><path fill="#f4dc5f" d="M 13.523438 349.160156 L 25.539062 349.160156 L 25.539062 361.179688 L 13.523438 361.179688 Z M 13.523438 349.160156 " fill-opacity="1" fill-rule="nonzero"/><path fill="#f4dc5f" d="M 13.523438 180.890625 L 25.539062 180.890625 L 25.539062 192.910156 L 13.523438 192.910156 Z M 13.523438 180.890625 " fill-opacity="1" fill-rule="nonzero"/><path fill="#f4dc5f" d="M 350.058594 253.003906 C 349.136719 253.007812 348.21875 253.082031 347.304688 253.222656 C 346.390625 253.367188 345.492188 253.582031 344.613281 253.863281 C 343.734375 254.144531 342.878906 254.492188 342.050781 254.90625 C 341.226562 255.320312 340.433594 255.792969 339.679688 256.328125 C 338.925781 256.863281 338.21875 257.453125 337.554688 258.09375 C 336.890625 258.738281 336.28125 259.429688 335.722656 260.167969 C 335.167969 260.90625 334.667969 261.679688 334.230469 262.496094 C 333.792969 263.308594 333.421875 264.152344 333.113281 265.023438 L 283.953125 265.023438 C 283.578125 258.921875 282.617188 252.910156 281.070312 246.996094 L 326.023438 246.996094 C 326.675781 247.03125 327.320312 246.957031 327.953125 246.78125 C 328.585938 246.605469 329.171875 246.332031 329.714844 245.964844 C 330.257812 245.59375 330.726562 245.148438 331.121094 244.625 C 331.519531 244.101562 331.820312 243.53125 332.03125 242.910156 L 336.359375 228.964844 L 350.058594 228.964844 L 350.058594 216.945312 L 332.03125 216.945312 C 331.375 216.914062 330.730469 216.984375 330.101562 217.160156 C 329.46875 217.335938 328.882812 217.609375 328.339844 217.980469 C 327.796875 218.347656 327.328125 218.792969 326.929688 219.316406 C 326.535156 219.839844 326.230469 220.410156 326.023438 221.035156 L 321.695312 234.976562 L 276.863281 234.976562 C 273.339844 226.269531 268.632812 218.253906 262.742188 210.9375 L 314.003906 210.9375 C 314.65625 210.972656 315.300781 210.902344 315.933594 210.722656 C 316.566406 210.546875 317.152344 210.273438 317.695312 209.90625 C 318.238281 209.535156 318.707031 209.089844 319.105469 208.566406 C 319.5 208.046875 319.804688 207.472656 320.011719 206.851562 L 324.339844 192.910156 L 338.039062 192.910156 L 338.039062 180.890625 L 320.011719 180.890625 C 319.355469 180.855469 318.714844 180.925781 318.082031 181.101562 C 317.449219 181.28125 316.863281 181.550781 316.320312 181.921875 C 315.777344 182.289062 315.308594 182.734375 314.910156 183.257812 C 314.515625 183.78125 314.210938 184.355469 314.003906 184.976562 L 309.675781 198.917969 L 251.203125 198.917969 C 248.230469 196.304688 245.125 193.859375 241.886719 191.585938 L 241.886719 180.890625 L 295.972656 180.890625 C 296.367188 180.890625 296.757812 180.851562 297.144531 180.773438 C 297.53125 180.695312 297.910156 180.582031 298.273438 180.433594 C 298.636719 180.28125 298.984375 180.097656 299.3125 179.875 C 299.640625 179.65625 299.945312 179.410156 300.222656 179.128906 C 300.503906 178.851562 300.75 178.546875 300.96875 178.21875 C 301.191406 177.890625 301.375 177.542969 301.527344 177.179688 C 301.675781 176.816406 301.789062 176.4375 301.867188 176.050781 C 301.945312 175.664062 301.984375 175.273438 301.984375 174.878906 L 301.984375 150.839844 C 303.445312 150.714844 304.898438 150.546875 306.347656 150.332031 C 307.800781 150.121094 309.242188 149.863281 310.675781 149.558594 C 312.109375 149.257812 313.535156 148.914062 314.949219 148.523438 C 316.359375 148.136719 317.761719 147.703125 319.148438 147.230469 C 320.535156 146.757812 321.90625 146.242188 323.261719 145.683594 C 324.617188 145.125 325.957031 144.527344 327.273438 143.890625 C 328.59375 143.25 329.890625 142.570312 331.167969 141.851562 C 332.449219 141.136719 333.703125 140.378906 334.933594 139.582031 C 336.164062 138.789062 337.371094 137.957031 338.550781 137.089844 C 339.734375 136.21875 340.886719 135.316406 342.011719 134.378906 C 343.136719 133.441406 344.234375 132.46875 345.300781 131.460938 C 346.367188 130.457031 347.402344 129.417969 348.40625 128.351562 C 349.410156 127.28125 350.378906 126.183594 351.316406 125.058594 C 352.253906 123.929688 353.152344 122.773438 354.019531 121.589844 C 354.886719 120.410156 355.714844 119.199219 356.507812 117.96875 C 357.296875 116.734375 358.054688 115.476562 358.769531 114.199219 C 359.484375 112.917969 360.160156 111.621094 360.796875 110.300781 C 361.433594 108.980469 362.027344 107.640625 362.582031 106.285156 C 363.136719 104.925781 363.652344 103.554688 364.121094 102.167969 C 364.59375 100.777344 365.023438 99.378906 365.40625 97.964844 C 365.792969 96.550781 366.136719 95.125 366.433594 93.6875 C 366.734375 92.253906 366.988281 90.8125 367.199219 89.359375 C 367.410156 87.910156 367.574219 86.453125 367.699219 84.992188 C 367.820312 83.535156 367.898438 82.070312 367.929688 80.605469 C 367.964844 79.140625 367.949219 77.675781 367.894531 76.210938 C 367.839844 74.746094 367.738281 73.285156 367.589844 71.824219 C 367.445312 70.367188 367.257812 68.914062 367.023438 67.464844 C 366.789062 66.019531 366.507812 64.582031 366.1875 63.152344 C 365.867188 61.722656 365.5 60.300781 365.09375 58.894531 C 364.683594 57.488281 364.234375 56.09375 363.738281 54.710938 C 363.246094 53.332031 362.710938 51.96875 362.132812 50.621094 C 361.558594 49.273438 360.941406 47.945312 360.28125 46.632812 C 359.625 45.324219 358.929688 44.035156 358.191406 42.769531 C 357.457031 41.5 356.683594 40.257812 355.871094 39.035156 C 355.058594 37.816406 354.210938 36.621094 353.324219 35.453125 C 352.4375 34.285156 351.519531 33.144531 350.566406 32.03125 C 349.609375 30.917969 348.625 29.835938 347.601562 28.785156 C 346.582031 27.730469 345.53125 26.710938 344.449219 25.722656 C 343.367188 24.734375 342.253906 23.78125 341.113281 22.859375 C 339.972656 21.941406 338.804688 21.054688 337.609375 20.207031 C 336.414062 19.359375 335.195312 18.546875 333.949219 17.769531 C 332.707031 16.996094 331.441406 16.261719 330.152344 15.5625 C 328.863281 14.863281 327.550781 14.207031 326.222656 13.589844 C 324.894531 12.972656 323.546875 12.394531 322.183594 11.859375 C 320.816406 11.324219 319.4375 10.832031 318.042969 10.378906 C 316.648438 9.925781 315.242188 9.519531 313.824219 9.152344 C 312.402344 8.789062 310.972656 8.464844 309.535156 8.1875 C 308.097656 7.910156 306.648438 7.675781 305.195312 7.484375 C 303.742188 7.292969 302.285156 7.148438 300.824219 7.046875 C 299.359375 6.945312 297.898438 6.886719 296.429688 6.875 C 294.964844 6.863281 293.5 6.894531 292.035156 6.972656 C 290.574219 7.050781 289.113281 7.171875 287.65625 7.339844 C 286.199219 7.503906 284.75 7.714844 283.308594 7.96875 C 281.863281 8.222656 280.429688 8.523438 279.003906 8.863281 C 277.578125 9.207031 276.164062 9.589844 274.761719 10.019531 C 273.359375 10.449219 271.972656 10.917969 270.601562 11.433594 C 269.226562 11.945312 267.871094 12.5 266.53125 13.09375 C 265.191406 13.691406 263.871094 14.324219 262.570312 15 C 261.269531 15.679688 259.992188 16.394531 258.734375 17.148438 C 257.480469 17.902344 256.246094 18.691406 255.035156 19.523438 C 253.828125 20.351562 252.644531 21.214844 251.488281 22.117188 C 250.335938 23.019531 249.207031 23.953125 248.109375 24.925781 C 247.007812 25.894531 245.941406 26.898438 244.902344 27.933594 C 243.863281 28.96875 242.859375 30.035156 241.886719 31.128906 C 241.042969 30.175781 240.175781 29.242188 239.285156 28.332031 C 238.390625 27.421875 237.476562 26.535156 236.535156 25.675781 C 235.597656 24.8125 234.636719 23.976562 233.652344 23.167969 C 232.667969 22.355469 231.664062 21.574219 230.636719 20.816406 C 229.613281 20.058594 228.570312 19.328125 227.503906 18.628906 C 226.441406 17.925781 225.359375 17.253906 224.257812 16.609375 C 223.160156 15.964844 222.042969 15.351562 220.910156 14.765625 C 219.78125 14.179688 218.632812 13.625 217.472656 13.101562 C 216.308594 12.578125 215.136719 12.082031 213.949219 11.621094 C 212.761719 11.160156 211.5625 10.730469 210.351562 10.332031 C 209.140625 9.933594 207.917969 9.566406 206.691406 9.230469 C 205.460938 8.898438 204.222656 8.597656 202.976562 8.328125 C 201.730469 8.0625 200.476562 7.824219 199.21875 7.625 C 197.960938 7.421875 196.699219 7.253906 195.429688 7.117188 C 194.164062 6.984375 192.894531 6.882812 191.621094 6.816406 C 190.347656 6.746094 189.074219 6.714844 187.800781 6.714844 C 186.527344 6.714844 185.253906 6.746094 183.980469 6.816406 C 182.707031 6.882812 181.4375 6.984375 180.171875 7.117188 C 178.902344 7.253906 177.640625 7.421875 176.382812 7.625 C 175.125 7.824219 173.871094 8.0625 172.625 8.328125 C 171.378906 8.597656 170.140625 8.898438 168.910156 9.230469 C 167.679688 9.566406 166.460938 9.933594 165.25 10.332031 C 164.039062 10.730469 162.839844 11.160156 161.652344 11.621094 C 160.464844 12.082031 159.292969 12.578125 158.128906 13.101562 C 156.96875 13.625 155.820312 14.179688 154.6875 14.765625 C 153.558594 15.351562 152.441406 15.964844 151.339844 16.609375 C 150.242188 17.253906 149.160156 17.925781 148.097656 18.628906 C 147.03125 19.328125 145.988281 20.058594 144.960938 20.816406 C 143.9375 21.574219 142.933594 22.355469 141.949219 23.167969 C 140.964844 23.976562 140.003906 24.8125 139.066406 25.675781 C 138.125 26.535156 137.210938 27.421875 136.316406 28.332031 C 135.425781 29.242188 134.558594 30.175781 133.714844 31.128906 C 132.742188 30.035156 131.734375 28.96875 130.699219 27.933594 C 129.660156 26.898438 128.59375 25.894531 127.492188 24.925781 C 126.394531 23.953125 125.265625 23.019531 124.109375 22.117188 C 122.953125 21.214844 121.773438 20.351562 120.5625 19.523438 C 119.355469 18.691406 118.121094 17.902344 116.867188 17.148438 C 115.609375 16.394531 114.328125 15.679688 113.027344 15 C 111.726562 14.324219 110.410156 13.691406 109.070312 13.09375 C 107.730469 12.5 106.375 11.945312 105 11.429688 C 103.628906 10.917969 102.238281 10.449219 100.839844 10.019531 C 99.4375 9.589844 98.023438 9.207031 96.597656 8.863281 C 95.171875 8.523438 93.738281 8.222656 92.292969 7.96875 C 90.851562 7.714844 89.402344 7.503906 87.945312 7.339844 C 86.488281 7.171875 85.027344 7.050781 83.5625 6.972656 C 82.101562 6.894531 80.636719 6.863281 79.167969 6.875 C 77.703125 6.886719 76.238281 6.945312 74.777344 7.046875 C 73.316406 7.148438 71.859375 7.292969 70.402344 7.484375 C 68.949219 7.675781 67.503906 7.910156 66.066406 8.1875 C 64.625 8.464844 63.195312 8.789062 61.777344 9.152344 C 60.359375 9.519531 58.953125 9.925781 57.558594 10.378906 C 56.164062 10.832031 54.78125 11.324219 53.417969 11.859375 C 52.054688 12.394531 50.707031 12.972656 49.378906 13.589844 C 48.046875 14.207031 46.738281 14.863281 45.449219 15.5625 C 44.160156 16.261719 42.894531 16.996094 41.648438 17.769531 C 40.40625 18.546875 39.1875 19.359375 37.992188 20.207031 C 36.796875 21.054688 35.628906 21.941406 34.488281 22.859375 C 33.347656 23.78125 32.234375 24.734375 31.152344 25.722656 C 30.070312 26.710938 29.019531 27.730469 27.996094 28.785156 C 26.976562 29.835938 25.988281 30.917969 25.035156 32.03125 C 24.082031 33.144531 23.160156 34.285156 22.277344 35.453125 C 21.390625 36.621094 20.542969 37.816406 19.730469 39.035156 C 18.917969 40.257812 18.144531 41.5 17.410156 42.769531 C 16.671875 44.035156 15.976562 45.324219 15.316406 46.632812 C 14.660156 47.945312 14.042969 49.273438 13.464844 50.621094 C 12.890625 51.96875 12.355469 53.332031 11.863281 54.710938 C 11.367188 56.09375 10.917969 57.488281 10.507812 58.894531 C 10.101562 60.300781 9.734375 61.722656 9.414062 63.152344 C 9.089844 64.582031 8.8125 66.019531 8.578125 67.464844 C 8.34375 68.914062 8.15625 70.367188 8.007812 71.824219 C 7.863281 73.285156 7.761719 74.746094 7.707031 76.210938 C 7.648438 77.675781 7.636719 79.140625 7.671875 80.605469 C 7.703125 82.070312 7.78125 83.535156 7.902344 84.992188 C 8.023438 86.453125 8.191406 87.910156 8.402344 89.359375 C 8.613281 90.8125 8.867188 92.253906 9.167969 93.6875 C 9.464844 95.125 9.808594 96.550781 10.195312 97.964844 C 10.578125 99.378906 11.007812 100.777344 11.480469 102.167969 C 11.949219 103.554688 12.460938 104.925781 13.019531 106.285156 C 13.574219 107.640625 14.167969 108.980469 14.804688 110.300781 C 15.441406 111.621094 16.117188 112.917969 16.832031 114.199219 C 17.546875 115.476562 18.300781 116.734375 19.09375 117.96875 C 19.886719 119.199219 20.714844 120.410156 21.582031 121.589844 C 22.449219 122.773438 23.347656 123.929688 24.285156 125.058594 C 25.222656 126.183594 26.191406 127.28125 27.195312 128.351562 C 28.199219 129.417969 29.234375 130.457031 30.300781 131.460938 C 31.367188 132.46875 32.460938 133.441406 33.589844 134.378906 C 34.714844 135.316406 35.867188 136.21875 37.046875 137.089844 C 38.230469 137.957031 39.433594 138.789062 40.667969 139.582031 C 41.898438 140.378906 43.152344 141.136719 44.429688 141.851562 C 45.710938 142.570312 47.007812 143.25 48.328125 143.890625 C 49.644531 144.527344 50.984375 145.125 52.339844 145.683594 C 53.695312 146.242188 55.066406 146.757812 56.453125 147.230469 C 57.839844 147.703125 59.238281 148.136719 60.652344 148.523438 C 62.066406 148.914062 63.492188 149.257812 64.925781 149.558594 C 66.359375 149.863281 67.800781 150.121094 69.25 150.332031 C 70.703125 150.546875 72.15625 150.714844 73.617188 150.839844 L 73.617188 174.878906 C 73.617188 175.273438 73.65625 175.664062 73.734375 176.050781 C 73.808594 176.4375 73.925781 176.816406 74.074219 177.179688 C 74.226562 177.542969 74.410156 177.890625 74.628906 178.21875 C 74.851562 178.546875 75.097656 178.851562 75.378906 179.128906 C 75.65625 179.410156 75.960938 179.65625 76.289062 179.875 C 76.617188 180.097656 76.964844 180.28125 77.328125 180.433594 C 77.691406 180.582031 78.066406 180.695312 78.453125 180.773438 C 78.84375 180.851562 79.234375 180.890625 79.628906 180.890625 L 133.714844 180.890625 L 133.714844 191.585938 C 130.476562 193.859375 127.371094 196.304688 124.398438 198.917969 L 65.925781 198.917969 L 61.597656 184.976562 C 61.390625 184.355469 61.085938 183.78125 60.691406 183.257812 C 60.292969 182.734375 59.824219 182.289062 59.28125 181.921875 C 58.738281 181.550781 58.152344 181.28125 57.519531 181.101562 C 56.886719 180.925781 56.246094 180.855469 55.589844 180.890625 L 37.558594 180.890625 L 37.558594 192.910156 L 51.261719 192.910156 L 55.890625 206.851562 C 56.089844 207.449219 56.378906 208 56.753906 208.503906 C 57.128906 209.011719 57.574219 209.449219 58.085938 209.816406 C 58.597656 210.179688 59.152344 210.460938 59.753906 210.652344 C 60.355469 210.84375 60.96875 210.9375 61.597656 210.9375 L 112.859375 210.9375 C 106.96875 218.253906 102.261719 226.269531 98.738281 234.976562 L 53.90625 234.976562 L 49.578125 221.035156 C 49.371094 220.410156 49.066406 219.839844 48.671875 219.316406 C 48.273438 218.792969 47.804688 218.347656 47.261719 217.980469 C 46.71875 217.609375 46.132812 217.335938 45.5 217.160156 C 44.867188 216.984375 44.226562 216.914062 43.570312 216.945312 L 25.539062 216.945312 L 25.539062 228.964844 L 39.242188 228.964844 L 43.871094 242.910156 C 44.070312 243.503906 44.359375 244.058594 44.734375 244.5625 C 45.109375 245.070312 45.554688 245.503906 46.066406 245.871094 C 46.578125 246.238281 47.132812 246.519531 47.734375 246.710938 C 48.335938 246.902344 48.949219 246.996094 49.578125 246.996094 L 94.832031 246.996094 C 93.285156 252.910156 92.324219 258.921875 91.945312 265.023438 L 42.488281 265.023438 C 42.253906 264.363281 41.980469 263.714844 41.671875 263.085938 C 41.363281 262.453125 41.015625 261.84375 40.636719 261.253906 C 40.253906 260.664062 39.839844 260.097656 39.394531 259.558594 C 38.945312 259.015625 38.46875 258.5 37.960938 258.015625 C 37.457031 257.53125 36.921875 257.074219 36.363281 256.652344 C 35.800781 256.226562 35.21875 255.839844 34.613281 255.484375 C 34.007812 255.128906 33.382812 254.808594 32.738281 254.527344 C 32.097656 254.242188 31.4375 254 30.765625 253.792969 C 30.09375 253.589844 29.414062 253.421875 28.722656 253.296875 C 28.03125 253.171875 27.335938 253.085938 26.636719 253.042969 C 25.933594 252.996094 25.234375 252.992188 24.53125 253.03125 C 23.832031 253.066406 23.132812 253.144531 22.441406 253.265625 C 21.75 253.382812 21.066406 253.542969 20.394531 253.742188 C 19.71875 253.9375 19.058594 254.175781 18.414062 254.453125 C 17.765625 254.726562 17.140625 255.039062 16.53125 255.390625 C 15.921875 255.738281 15.332031 256.121094 14.769531 256.539062 C 14.203125 256.957031 13.664062 257.40625 13.152344 257.886719 C 12.640625 258.367188 12.160156 258.875 11.707031 259.414062 C 11.253906 259.949219 10.832031 260.511719 10.445312 261.097656 C 10.058594 261.683594 9.707031 262.289062 9.390625 262.917969 C 9.074219 263.542969 8.796875 264.1875 8.554688 264.847656 C 8.316406 265.507812 8.113281 266.179688 7.949219 266.863281 C 7.789062 267.546875 7.664062 268.234375 7.585938 268.933594 C 7.503906 269.632812 7.460938 270.332031 7.460938 271.035156 C 7.460938 271.734375 7.503906 272.4375 7.585938 273.132812 C 7.664062 273.832031 7.789062 274.523438 7.949219 275.203125 C 8.113281 275.886719 8.316406 276.558594 8.554688 277.21875 C 8.796875 277.878906 9.074219 278.523438 9.390625 279.148438 C 9.707031 279.777344 10.058594 280.382812 10.445312 280.96875 C 10.832031 281.554688 11.253906 282.117188 11.707031 282.652344 C 12.160156 283.191406 12.640625 283.699219 13.152344 284.179688 C 13.664062 284.660156 14.203125 285.109375 14.769531 285.527344 C 15.332031 285.945312 15.921875 286.328125 16.53125 286.679688 C 17.140625 287.027344 17.765625 287.339844 18.414062 287.617188 C 19.058594 287.890625 19.71875 288.128906 20.394531 288.328125 C 21.066406 288.527344 21.75 288.683594 22.441406 288.804688 C 23.132812 288.921875 23.832031 289 24.53125 289.035156 C 25.234375 289.074219 25.933594 289.070312 26.636719 289.027344 C 27.335938 288.980469 28.03125 288.894531 28.722656 288.769531 C 29.414062 288.644531 30.09375 288.480469 30.765625 288.273438 C 31.4375 288.066406 32.097656 287.824219 32.738281 287.539062 C 33.382812 287.257812 34.007812 286.941406 34.613281 286.585938 C 35.21875 286.230469 35.800781 285.839844 36.363281 285.414062 C 36.921875 284.992188 37.457031 284.539062 37.960938 284.050781 C 38.46875 283.566406 38.945312 283.050781 39.394531 282.511719 C 39.839844 281.96875 40.253906 281.402344 40.636719 280.8125 C 41.015625 280.222656 41.363281 279.613281 41.671875 278.980469 C 41.980469 278.351562 42.253906 277.707031 42.488281 277.042969 L 91.945312 277.042969 C 92.324219 283.148438 93.285156 289.15625 94.832031 295.070312 L 49.578125 295.070312 C 48.949219 295.070312 48.335938 295.164062 47.734375 295.355469 C 47.132812 295.550781 46.578125 295.828125 46.066406 296.195312 C 45.554688 296.5625 45.109375 296.996094 44.734375 297.503906 C 44.359375 298.011719 44.070312 298.5625 43.871094 299.160156 L 39.242188 313.101562 L 25.539062 313.101562 L 25.539062 325.121094 L 43.570312 325.121094 C 44.226562 325.15625 44.867188 325.082031 45.5 324.90625 C 46.132812 324.730469 46.71875 324.457031 47.261719 324.089844 C 47.804688 323.71875 48.273438 323.273438 48.671875 322.75 C 49.066406 322.226562 49.371094 321.65625 49.578125 321.035156 L 53.90625 307.089844 L 98.738281 307.089844 C 102.261719 315.800781 106.96875 323.8125 112.859375 331.128906 L 61.597656 331.128906 C 60.96875 331.128906 60.355469 331.222656 59.753906 331.414062 C 59.152344 331.605469 58.597656 331.886719 58.085938 332.253906 C 57.574219 332.621094 57.128906 333.054688 56.753906 333.5625 C 56.378906 334.066406 56.089844 334.621094 55.890625 335.214844 L 51.261719 349.160156 L 37.558594 349.160156 L 37.558594 361.179688 L 55.589844 361.179688 C 56.21875 361.179688 56.832031 361.085938 57.433594 360.894531 C 58.035156 360.699219 58.589844 360.421875 59.101562 360.054688 C 59.613281 359.6875 60.058594 359.25 60.433594 358.746094 C 60.808594 358.238281 61.097656 357.6875 61.296875 357.089844 L 65.925781 343.148438 L 124.398438 343.148438 C 125.480469 344.105469 126.582031 345.039062 127.707031 345.949219 C 128.828125 346.855469 129.972656 347.738281 131.136719 348.59375 C 132.300781 349.449219 133.480469 350.277344 134.683594 351.082031 C 135.882812 351.882812 137.101562 352.65625 138.335938 353.40625 C 139.574219 354.152344 140.824219 354.871094 142.09375 355.5625 C 143.363281 356.25 144.648438 356.914062 145.945312 357.546875 C 147.242188 358.175781 148.554688 358.78125 149.882812 359.351562 C 151.207031 359.925781 152.546875 360.46875 153.898438 360.980469 C 155.246094 361.492188 156.609375 361.972656 157.980469 362.425781 C 159.351562 362.875 160.734375 363.292969 162.125 363.679688 C 163.515625 364.070312 164.917969 364.425781 166.324219 364.75 C 167.730469 365.074219 169.144531 365.367188 170.566406 365.628906 C 171.988281 365.886719 173.414062 366.117188 174.84375 366.3125 C 176.273438 366.507812 177.710938 366.671875 179.148438 366.800781 C 180.585938 366.929688 182.027344 367.03125 183.46875 367.09375 C 184.914062 367.160156 186.355469 367.191406 187.800781 367.191406 C 189.246094 367.191406 190.6875 367.160156 192.132812 367.09375 C 193.574219 367.03125 195.015625 366.929688 196.453125 366.800781 C 197.890625 366.671875 199.324219 366.507812 200.757812 366.3125 C 202.1875 366.117188 203.613281 365.886719 205.035156 365.628906 C 206.457031 365.367188 207.871094 365.074219 209.277344 364.75 C 210.683594 364.425781 212.082031 364.070312 213.476562 363.679688 C 214.867188 363.292969 216.246094 362.875 217.621094 362.425781 C 218.992188 361.972656 220.355469 361.492188 221.703125 360.980469 C 223.054688 360.46875 224.394531 359.925781 225.71875 359.351562 C 227.042969 358.78125 228.355469 358.175781 229.65625 357.546875 C 230.953125 356.914062 232.238281 356.25 233.507812 355.5625 C 234.773438 354.871094 236.027344 354.152344 237.261719 353.40625 C 238.5 352.65625 239.71875 351.882812 240.917969 351.082031 C 242.121094 350.277344 243.300781 349.449219 244.464844 348.59375 C 245.628906 347.738281 246.773438 346.855469 247.894531 345.949219 C 249.019531 345.039062 250.121094 344.105469 251.203125 343.148438 L 309.675781 343.148438 L 314.304688 357.089844 C 314.503906 357.6875 314.792969 358.238281 315.167969 358.746094 C 315.542969 359.253906 315.988281 359.6875 316.5 360.054688 C 317.011719 360.421875 317.566406 360.699219 318.167969 360.894531 C 318.765625 361.085938 319.382812 361.179688 320.011719 361.179688 L 338.039062 361.179688 L 338.039062 349.160156 L 324.339844 349.160156 L 320.011719 335.214844 C 319.804688 334.59375 319.5 334.023438 319.105469 333.5 C 318.707031 332.976562 318.238281 332.53125 317.695312 332.160156 C 317.152344 331.792969 316.566406 331.519531 315.933594 331.34375 C 315.300781 331.167969 314.65625 331.09375 314.003906 331.128906 L 262.742188 331.128906 C 268.632812 323.8125 273.339844 315.800781 276.863281 307.089844 L 321.695312 307.089844 L 326.320312 321.035156 C 326.523438 321.628906 326.8125 322.183594 327.1875 322.6875 C 327.5625 323.195312 328.003906 323.628906 328.519531 323.996094 C 329.03125 324.363281 329.585938 324.644531 330.1875 324.835938 C 330.785156 325.027344 331.402344 325.121094 332.03125 325.121094 L 350.058594 325.121094 L 350.058594 313.101562 L 336.359375 313.101562 L 332.03125 299.160156 C 331.820312 298.535156 331.519531 297.964844 331.121094 297.441406 C 330.726562 296.917969 330.257812 296.472656 329.714844 296.105469 C 329.171875 295.734375 328.585938 295.460938 327.953125 295.285156 C 327.320312 295.109375 326.675781 295.039062 326.023438 295.070312 L 280.769531 295.070312 C 282.417969 289.167969 283.480469 283.15625 283.953125 277.042969 L 333.414062 277.042969 C 333.78125 278.082031 334.242188 279.082031 334.792969 280.035156 C 335.34375 280.992188 335.976562 281.886719 336.691406 282.726562 C 337.40625 283.566406 338.191406 284.332031 339.046875 285.027344 C 339.90625 285.722656 340.816406 286.335938 341.785156 286.863281 C 342.753906 287.390625 343.761719 287.824219 344.808594 288.167969 C 345.859375 288.511719 346.929688 288.753906 348.023438 288.898438 C 349.117188 289.046875 350.210938 289.089844 351.3125 289.035156 C 352.414062 288.980469 353.503906 288.824219 354.574219 288.570312 C 355.648438 288.316406 356.6875 287.964844 357.699219 287.519531 C 358.707031 287.074219 359.667969 286.539062 360.578125 285.917969 C 361.488281 285.296875 362.335938 284.597656 363.117188 283.820312 C 363.898438 283.042969 364.605469 282.199219 365.230469 281.292969 C 365.859375 280.386719 366.398438 279.429688 366.851562 278.425781 C 367.304688 277.421875 367.660156 276.382812 367.921875 275.308594 C 368.183594 274.238281 368.347656 273.152344 368.410156 272.050781 C 368.472656 270.949219 368.433594 269.851562 368.296875 268.757812 C 368.15625 267.664062 367.917969 266.59375 367.582031 265.542969 C 367.246094 264.492188 366.820312 263.480469 366.296875 262.507812 C 365.777344 261.539062 365.171875 260.621094 364.484375 259.761719 C 363.792969 258.898438 363.03125 258.109375 362.195312 257.386719 C 361.363281 256.667969 360.46875 256.027344 359.515625 255.472656 C 358.566406 254.914062 357.570312 254.449219 356.535156 254.074219 C 355.496094 253.699219 354.433594 253.421875 353.347656 253.242188 C 352.257812 253.0625 351.164062 252.984375 350.058594 253.003906 Z M 262.320312 232.089844 L 251.320312 236.960938 C 249.496094 233.589844 247.417969 230.382812 245.082031 227.34375 C 242.75 224.300781 240.195312 221.460938 237.414062 218.824219 C 234.632812 216.183594 231.664062 213.78125 228.503906 211.613281 C 225.34375 209.441406 222.03125 207.535156 218.570312 205.890625 L 222.898438 194.652344 C 227.089844 196.597656 231.097656 198.867188 234.921875 201.464844 C 238.742188 204.0625 242.328125 206.953125 245.679688 210.136719 C 249.03125 213.320312 252.105469 216.75 254.894531 220.433594 C 257.6875 224.117188 260.160156 228.003906 262.320312 232.089844 Z M 235.878906 168.871094 C 235.484375 168.871094 235.09375 168.910156 234.703125 168.984375 C 234.316406 169.0625 233.941406 169.175781 233.578125 169.328125 C 233.214844 169.480469 232.867188 169.664062 232.539062 169.882812 C 232.210938 170.101562 231.90625 170.351562 231.628906 170.628906 C 231.347656 170.910156 231.101562 171.214844 230.878906 171.542969 C 230.660156 171.867188 230.476562 172.214844 230.324219 172.578125 C 230.175781 172.945312 230.058594 173.320312 229.984375 173.707031 C 229.90625 174.09375 229.867188 174.484375 229.867188 174.878906 L 229.867188 184.675781 C 224.226562 181.925781 218.375 179.753906 212.304688 178.152344 C 206.238281 176.554688 200.074219 175.566406 193.808594 175.179688 L 193.808594 150.839844 C 198.398438 150.464844 202.910156 149.65625 207.34375 148.417969 C 211.777344 147.175781 216.054688 145.527344 220.171875 143.46875 C 224.289062 141.410156 228.175781 138.980469 231.828125 136.175781 C 235.480469 133.371094 238.832031 130.25 241.886719 126.804688 C 244.941406 130.25 248.292969 133.371094 251.945312 136.175781 C 255.597656 138.980469 259.484375 141.410156 263.601562 143.46875 C 267.71875 145.527344 271.996094 147.175781 276.429688 148.417969 C 280.863281 149.65625 285.375 150.464844 289.964844 150.839844 L 289.964844 168.871094 Z M 295.972656 18.628906 C 297.238281 18.625 298.503906 18.664062 299.765625 18.738281 C 301.027344 18.816406 302.285156 18.933594 303.542969 19.089844 C 304.796875 19.246094 306.046875 19.441406 307.289062 19.675781 C 308.53125 19.910156 309.765625 20.183594 310.992188 20.496094 C 312.21875 20.808594 313.433594 21.160156 314.636719 21.550781 C 315.839844 21.9375 317.027344 22.367188 318.207031 22.832031 C 319.382812 23.296875 320.542969 23.796875 321.6875 24.335938 C 322.832031 24.871094 323.957031 25.445312 325.066406 26.054688 C 326.175781 26.664062 327.265625 27.308594 328.332031 27.984375 C 329.398438 28.664062 330.445312 29.375 331.46875 30.117188 C 332.492188 30.859375 333.492188 31.636719 334.464844 32.441406 C 335.4375 33.25 336.386719 34.085938 337.308594 34.953125 C 338.230469 35.820312 339.121094 36.714844 339.988281 37.636719 C 340.851562 38.5625 341.6875 39.511719 342.492188 40.488281 C 343.296875 41.460938 344.070312 42.460938 344.8125 43.488281 C 345.554688 44.511719 346.261719 45.558594 346.9375 46.628906 C 347.613281 47.699219 348.253906 48.785156 348.859375 49.898438 C 349.46875 51.007812 350.039062 52.132812 350.574219 53.28125 C 351.109375 54.425781 351.609375 55.589844 352.070312 56.765625 C 352.535156 57.941406 352.957031 59.132812 353.34375 60.339844 C 353.730469 61.542969 354.082031 62.757812 354.390625 63.984375 C 354.703125 65.210938 354.972656 66.445312 355.203125 67.6875 C 355.4375 68.933594 355.628906 70.179688 355.785156 71.4375 C 355.9375 72.691406 356.050781 73.953125 356.125 75.214844 C 356.199219 76.476562 356.234375 77.742188 356.226562 79.003906 C 356.21875 80.269531 356.175781 81.535156 356.089844 82.796875 C 356.003906 84.058594 355.878906 85.316406 355.714844 86.570312 C 355.546875 87.824219 355.34375 89.070312 355.101562 90.3125 C 354.855469 91.554688 354.574219 92.785156 354.25 94.007812 C 353.929688 95.234375 353.570312 96.445312 353.171875 97.644531 C 352.773438 98.847656 352.335938 100.03125 351.863281 101.207031 C 351.390625 102.378906 350.882812 103.535156 350.335938 104.675781 C 349.789062 105.816406 349.207031 106.941406 348.589844 108.042969 C 347.972656 109.148438 347.320312 110.230469 346.636719 111.296875 C 345.949219 112.359375 345.230469 113.398438 344.480469 114.417969 C 343.730469 115.433594 342.949219 116.425781 342.132812 117.394531 C 341.320312 118.363281 340.476562 119.304688 339.601562 120.21875 C 338.730469 121.136719 337.828125 122.023438 336.898438 122.878906 C 335.96875 123.738281 335.011719 124.566406 334.03125 125.363281 C 333.050781 126.160156 332.042969 126.925781 331.015625 127.660156 C 329.984375 128.394531 328.933594 129.097656 327.859375 129.765625 C 326.785156 130.433594 325.691406 131.066406 324.574219 131.664062 C 323.460938 132.261719 322.328125 132.824219 321.179688 133.351562 C 320.03125 133.878906 318.863281 134.371094 317.683594 134.824219 C 316.503906 135.277344 315.308594 135.695312 314.101562 136.070312 C 312.894531 136.449219 311.675781 136.789062 310.449219 137.089844 C 309.21875 137.394531 307.984375 137.65625 306.738281 137.878906 C 305.492188 138.101562 304.242188 138.285156 302.984375 138.429688 C 301.730469 138.574219 300.46875 138.679688 299.207031 138.742188 C 297.941406 138.808594 296.679688 138.832031 295.414062 138.816406 C 294.148438 138.800781 292.886719 138.746094 291.625 138.652344 C 290.363281 138.558594 289.105469 138.421875 287.851562 138.25 C 286.601562 138.074219 285.355469 137.859375 284.113281 137.609375 C 282.875 137.355469 281.644531 137.0625 280.425781 136.734375 C 279.203125 136.402344 277.996094 136.035156 276.796875 135.625 C 275.597656 135.21875 274.414062 134.777344 273.246094 134.292969 C 272.074219 133.8125 270.921875 133.292969 269.785156 132.738281 C 268.648438 132.183594 267.53125 131.59375 266.429688 130.96875 C 265.332031 130.34375 264.253906 129.6875 263.195312 128.992188 C 262.136719 128.300781 261.101562 127.574219 260.089844 126.816406 C 259.078125 126.054688 258.089844 125.265625 257.128906 124.445312 C 256.164062 123.625 255.230469 122.773438 254.320312 121.894531 C 253.414062 121.015625 252.53125 120.105469 251.679688 119.171875 C 250.832031 118.234375 250.007812 117.273438 249.21875 116.285156 C 250.957031 113.480469 252.496094 110.566406 253.832031 107.546875 C 255.167969 104.527344 256.285156 101.429688 257.191406 98.253906 C 258.097656 95.078125 258.777344 91.855469 259.234375 88.585938 C 259.691406 85.3125 259.917969 82.027344 259.917969 78.726562 C 259.917969 75.425781 259.691406 72.136719 259.234375 68.867188 C 258.777344 65.597656 258.097656 62.375 257.191406 59.199219 C 256.285156 56.023438 255.167969 52.925781 253.832031 49.90625 C 252.496094 46.886719 250.957031 43.972656 249.21875 41.164062 C 250.617188 39.417969 252.109375 37.753906 253.695312 36.171875 C 255.28125 34.59375 256.949219 33.105469 258.699219 31.710938 C 260.449219 30.316406 262.273438 29.023438 264.167969 27.832031 C 266.066406 26.644531 268.019531 25.5625 270.039062 24.589844 C 272.054688 23.617188 274.117188 22.761719 276.230469 22.019531 C 278.34375 21.277344 280.488281 20.65625 282.671875 20.15625 C 284.851562 19.65625 287.054688 19.277344 289.28125 19.019531 C 291.503906 18.765625 293.734375 18.636719 295.972656 18.628906 Z M 157.753906 78.726562 L 157.753906 42.667969 C 157.753906 42.273438 157.789062 41.882812 157.867188 41.496094 C 157.945312 41.109375 158.058594 40.734375 158.210938 40.367188 C 158.359375 40.003906 158.546875 39.65625 158.765625 39.328125 C 158.984375 39 159.234375 38.699219 159.511719 38.417969 C 159.792969 38.140625 160.09375 37.890625 160.421875 37.671875 C 160.75 37.453125 161.097656 37.265625 161.460938 37.117188 C 161.828125 36.964844 162.203125 36.851562 162.589844 36.773438 C 162.976562 36.695312 163.367188 36.660156 163.761719 36.660156 L 169.773438 36.660156 L 169.773438 30.648438 L 181.789062 30.648438 L 181.789062 36.660156 L 193.808594 36.660156 L 193.808594 30.648438 L 205.828125 30.648438 L 205.828125 40.023438 C 206.644531 40.503906 207.425781 41.03125 208.175781 41.601562 C 208.929688 42.175781 209.644531 42.789062 210.324219 43.445312 C 211.003906 44.101562 211.640625 44.796875 212.238281 45.527344 C 212.835938 46.257812 213.386719 47.023438 213.894531 47.820312 C 214.402344 48.617188 214.863281 49.441406 215.273438 50.289062 C 215.683594 51.140625 216.039062 52.015625 216.347656 52.90625 C 216.65625 53.800781 216.910156 54.707031 217.109375 55.632812 C 217.308594 56.554688 217.457031 57.484375 217.546875 58.425781 C 217.636719 59.367188 217.671875 60.308594 217.652344 61.253906 C 217.628906 62.199219 217.554688 63.136719 217.421875 64.074219 C 217.292969 65.007812 217.105469 65.933594 216.867188 66.847656 C 216.625 67.757812 216.332031 68.65625 215.984375 69.535156 C 215.640625 70.414062 215.242188 71.269531 214.796875 72.101562 C 214.351562 72.933594 213.855469 73.738281 213.3125 74.511719 C 212.773438 75.285156 212.1875 76.023438 211.558594 76.730469 C 210.929688 77.433594 210.261719 78.101562 209.554688 78.726562 C 210.261719 79.351562 210.929688 80.019531 211.558594 80.722656 C 212.1875 81.429688 212.773438 82.167969 213.3125 82.941406 C 213.855469 83.714844 214.351562 84.519531 214.796875 85.351562 C 215.242188 86.183594 215.640625 87.039062 215.984375 87.917969 C 216.332031 88.796875 216.625 89.691406 216.867188 90.605469 C 217.105469 91.519531 217.292969 92.445312 217.421875 93.378906 C 217.554688 94.316406 217.628906 95.253906 217.652344 96.199219 C 217.671875 97.144531 217.636719 98.085938 217.546875 99.027344 C 217.457031 99.964844 217.308594 100.898438 217.109375 101.820312 C 216.910156 102.742188 216.65625 103.652344 216.347656 104.542969 C 216.039062 105.4375 215.683594 106.308594 215.273438 107.160156 C 214.863281 108.011719 214.402344 108.835938 213.894531 109.632812 C 213.386719 110.429688 212.835938 111.195312 212.238281 111.925781 C 211.640625 112.65625 211.003906 113.351562 210.324219 114.007812 C 209.644531 114.664062 208.929688 115.277344 208.175781 115.851562 C 207.425781 116.421875 206.644531 116.949219 205.828125 117.429688 L 205.828125 126.804688 L 193.808594 126.804688 L 193.808594 120.792969 L 181.789062 120.792969 L 181.789062 126.804688 L 169.773438 126.804688 L 169.773438 120.792969 L 163.761719 120.792969 C 163.367188 120.792969 162.976562 120.753906 162.589844 120.679688 C 162.203125 120.601562 161.828125 120.488281 161.460938 120.335938 C 161.097656 120.183594 160.75 120 160.421875 119.78125 C 160.09375 119.5625 159.792969 119.3125 159.511719 119.03125 C 159.234375 118.753906 158.984375 118.449219 158.765625 118.121094 C 158.546875 117.792969 158.359375 117.449219 158.210938 117.082031 C 158.058594 116.71875 157.945312 116.34375 157.867188 115.957031 C 157.789062 115.570312 157.753906 115.179688 157.753906 114.785156 Z M 19.53125 78.726562 C 19.535156 77.1875 19.601562 75.648438 19.722656 74.113281 C 19.847656 72.578125 20.027344 71.050781 20.269531 69.527344 C 20.511719 68.007812 20.808594 66.496094 21.164062 65 C 21.523438 63.5 21.9375 62.019531 22.40625 60.550781 C 22.878906 59.085938 23.402344 57.640625 23.984375 56.214844 C 24.566406 54.789062 25.203125 53.386719 25.894531 52.007812 C 26.582031 50.632812 27.324219 49.285156 28.117188 47.964844 C 28.910156 46.644531 29.753906 45.355469 30.648438 44.101562 C 31.539062 42.847656 32.476562 41.625 33.464844 40.445312 C 34.449219 39.261719 35.480469 38.117188 36.554688 37.011719 C 37.628906 35.910156 38.742188 34.847656 39.898438 33.832031 C 41.054688 32.8125 42.246094 31.839844 43.476562 30.914062 C 44.707031 29.988281 45.972656 29.109375 47.269531 28.28125 C 48.566406 27.449219 49.894531 26.671875 51.253906 25.945312 C 52.609375 25.21875 53.996094 24.542969 55.402344 23.921875 C 56.8125 23.304688 58.246094 22.738281 59.699219 22.226562 C 61.152344 21.714844 62.621094 21.261719 64.109375 20.863281 C 65.597656 20.464844 67.097656 20.125 68.613281 19.84375 C 70.125 19.5625 71.648438 19.335938 73.179688 19.171875 C 74.710938 19.007812 76.246094 18.902344 77.785156 18.855469 C 79.324219 18.804688 80.863281 18.820312 82.402344 18.890625 C 83.941406 18.960938 85.472656 19.089844 87.003906 19.28125 C 88.53125 19.46875 90.050781 19.714844 91.558594 20.023438 C 93.070312 20.328125 94.566406 20.691406 96.046875 21.113281 C 97.527344 21.53125 98.992188 22.007812 100.4375 22.542969 C 101.878906 23.078125 103.300781 23.664062 104.703125 24.308594 C 106.101562 24.949219 107.476562 25.644531 108.820312 26.394531 C 110.167969 27.140625 111.484375 27.941406 112.765625 28.789062 C 114.050781 29.636719 115.300781 30.535156 116.519531 31.480469 C 117.734375 32.425781 118.910156 33.417969 120.050781 34.453125 C 121.191406 35.488281 122.289062 36.566406 123.347656 37.6875 C 124.402344 38.808594 125.414062 39.96875 126.382812 41.164062 C 124.640625 43.972656 123.105469 46.886719 121.769531 49.90625 C 120.433594 52.925781 119.3125 56.023438 118.410156 59.199219 C 117.503906 62.375 116.824219 65.597656 116.367188 68.867188 C 115.910156 72.136719 115.683594 75.425781 115.683594 78.726562 C 115.683594 82.027344 115.910156 85.3125 116.367188 88.585938 C 116.824219 91.855469 117.503906 95.078125 118.410156 98.253906 C 119.3125 101.429688 120.433594 104.527344 121.769531 107.546875 C 123.105469 110.566406 124.640625 113.480469 126.382812 116.285156 C 125.414062 117.484375 124.402344 118.644531 123.347656 119.765625 C 122.289062 120.882812 121.191406 121.960938 120.050781 123 C 118.910156 124.035156 117.734375 125.023438 116.519531 125.96875 C 115.300781 126.917969 114.050781 127.8125 112.765625 128.664062 C 111.484375 129.511719 110.167969 130.3125 108.820312 131.058594 C 107.476562 131.808594 106.101562 132.503906 104.703125 133.144531 C 103.300781 133.789062 101.878906 134.375 100.433594 134.910156 C 98.992188 135.441406 97.527344 135.917969 96.046875 136.339844 C 94.566406 136.761719 93.070312 137.125 91.558594 137.429688 C 90.050781 137.734375 88.53125 137.984375 87.003906 138.171875 C 85.472656 138.359375 83.941406 138.492188 82.402344 138.5625 C 80.863281 138.632812 79.324219 138.644531 77.785156 138.597656 C 76.246094 138.550781 74.710938 138.445312 73.179688 138.28125 C 71.648438 138.113281 70.125 137.890625 68.613281 137.609375 C 67.097656 137.324219 65.597656 136.984375 64.109375 136.589844 C 62.621094 136.191406 61.152344 135.734375 59.699219 135.226562 C 58.246094 134.714844 56.8125 134.148438 55.402344 133.527344 C 53.996094 132.90625 52.609375 132.234375 51.253906 131.507812 C 49.894531 130.777344 48.566406 130 47.269531 129.171875 C 45.972656 128.34375 44.707031 127.464844 43.476562 126.539062 C 42.246094 125.613281 41.054688 124.640625 39.898438 123.621094 C 38.742188 122.601562 37.628906 121.542969 36.554688 120.4375 C 35.480469 119.335938 34.449219 118.191406 33.464844 117.007812 C 32.476562 115.824219 31.539062 114.605469 30.648438 113.351562 C 29.753906 112.097656 28.910156 110.808594 28.117188 109.488281 C 27.324219 108.167969 26.582031 106.820312 25.894531 105.441406 C 25.203125 104.066406 24.566406 102.664062 23.984375 101.238281 C 23.402344 99.8125 22.878906 98.367188 22.40625 96.898438 C 21.9375 95.433594 21.523438 93.949219 21.164062 92.453125 C 20.808594 90.953125 20.511719 89.445312 20.269531 87.921875 C 20.027344 86.402344 19.847656 84.875 19.722656 83.339844 C 19.601562 81.804688 19.535156 80.265625 19.53125 78.726562 Z M 139.722656 168.871094 L 85.636719 168.871094 L 85.636719 150.480469 C 90.226562 150.105469 94.738281 149.296875 99.171875 148.058594 C 103.605469 146.816406 107.878906 145.167969 112 143.109375 C 116.117188 141.050781 120.003906 138.617188 123.65625 135.816406 C 127.308594 133.011719 130.660156 129.886719 133.714844 126.441406 C 136.769531 129.886719 140.121094 133.011719 143.773438 135.816406 C 147.425781 138.617188 151.3125 141.050781 155.429688 143.109375 C 159.546875 145.167969 163.824219 146.816406 168.257812 148.058594 C 172.691406 149.296875 177.203125 150.105469 181.789062 150.480469 L 181.789062 175.121094 C 175.527344 175.503906 169.363281 176.496094 163.296875 178.09375 C 157.226562 179.691406 151.375 181.867188 145.734375 184.617188 L 145.734375 174.878906 C 145.734375 174.484375 145.695312 174.09375 145.617188 173.707031 C 145.539062 173.320312 145.425781 172.945312 145.277344 172.578125 C 145.125 172.214844 144.941406 171.867188 144.71875 171.539062 C 144.5 171.214844 144.253906 170.910156 143.972656 170.628906 C 143.695312 170.351562 143.390625 170.101562 143.0625 169.882812 C 142.734375 169.664062 142.386719 169.480469 142.023438 169.328125 C 141.660156 169.175781 141.28125 169.0625 140.894531 168.984375 C 140.507812 168.910156 140.117188 168.871094 139.722656 168.871094 Z M 148.859375 196.515625 L 153.726562 207.511719 C 150.347656 209.328125 147.136719 211.398438 144.089844 213.730469 C 141.042969 216.058594 138.199219 218.613281 135.5625 221.394531 C 132.921875 224.175781 130.519531 227.148438 128.355469 230.316406 C 126.191406 233.480469 124.292969 236.796875 122.65625 240.265625 L 111.417969 235.9375 C 113.359375 231.742188 115.625 227.730469 118.222656 223.90625 C 120.816406 220.082031 123.707031 216.492188 126.890625 213.140625 C 130.074219 209.789062 133.507812 206.71875 137.195312 203.929688 C 140.878906 201.140625 144.769531 198.667969 148.859375 196.515625 Z M 152.703125 347.414062 C 148.511719 345.476562 144.503906 343.210938 140.683594 340.617188 C 136.859375 338.027344 133.273438 335.140625 129.921875 331.964844 C 126.570312 328.785156 123.5 325.359375 120.707031 321.679688 C 117.914062 318 115.441406 314.117188 113.28125 310.035156 L 124.277344 305.167969 C 126.105469 308.535156 128.1875 311.734375 130.519531 314.773438 C 132.851562 317.808594 135.410156 320.644531 138.191406 323.277344 C 140.972656 325.910156 143.941406 328.308594 147.101562 330.472656 C 150.261719 332.636719 153.570312 334.539062 157.03125 336.179688 Z M 127.703125 271.035156 C 127.703125 269.066406 127.800781 267.101562 127.992188 265.144531 C 128.1875 263.183594 128.476562 261.238281 128.859375 259.308594 C 129.242188 257.378906 129.722656 255.472656 130.292969 253.589844 C 130.863281 251.707031 131.527344 249.855469 132.277344 248.035156 C 133.03125 246.21875 133.871094 244.441406 134.800781 242.703125 C 135.726562 240.96875 136.738281 239.28125 137.832031 237.644531 C 138.925781 236.007812 140.097656 234.429688 141.34375 232.910156 C 142.59375 231.386719 143.914062 229.929688 145.304688 228.539062 C 146.699219 227.148438 148.15625 225.828125 149.675781 224.578125 C 151.199219 223.328125 152.777344 222.160156 154.414062 221.066406 C 156.050781 219.972656 157.734375 218.960938 159.472656 218.035156 C 161.207031 217.105469 162.984375 216.265625 164.800781 215.511719 C 166.621094 214.757812 168.472656 214.097656 170.355469 213.523438 C 172.238281 212.953125 174.144531 212.476562 176.078125 212.09375 C 178.007812 211.707031 179.953125 211.417969 181.910156 211.226562 C 183.867188 211.035156 185.832031 210.9375 187.800781 210.9375 C 189.769531 210.9375 191.730469 211.035156 193.691406 211.226562 C 195.648438 211.417969 197.59375 211.707031 199.523438 212.09375 C 201.453125 212.476562 203.363281 212.953125 205.246094 213.523438 C 207.128906 214.097656 208.980469 214.757812 210.796875 215.511719 C 212.617188 216.265625 214.394531 217.105469 216.128906 218.035156 C 217.867188 218.960938 219.550781 219.972656 221.1875 221.066406 C 222.824219 222.160156 224.402344 223.328125 225.925781 224.578125 C 227.445312 225.828125 228.902344 227.148438 230.292969 228.539062 C 231.6875 229.929688 233.007812 231.386719 234.253906 232.910156 C 235.503906 234.429688 236.675781 236.007812 237.769531 237.644531 C 238.863281 239.28125 239.871094 240.96875 240.800781 242.703125 C 241.726562 244.441406 242.570312 246.21875 243.320312 248.035156 C 244.074219 249.855469 244.738281 251.707031 245.308594 253.589844 C 245.878906 255.472656 246.359375 257.378906 246.742188 259.308594 C 247.125 261.238281 247.414062 263.183594 247.605469 265.144531 C 247.800781 267.101562 247.898438 269.066406 247.898438 271.035156 C 247.898438 273 247.800781 274.964844 247.605469 276.925781 C 247.414062 278.882812 247.125 280.828125 246.742188 282.757812 C 246.359375 284.6875 245.878906 286.59375 245.308594 288.480469 C 244.738281 290.363281 244.074219 292.214844 243.320312 294.03125 C 242.570312 295.851562 241.726562 297.625 240.800781 299.363281 C 239.871094 301.097656 238.863281 302.785156 237.769531 304.421875 C 236.675781 306.058594 235.503906 307.636719 234.253906 309.160156 C 233.007812 310.679688 231.6875 312.136719 230.292969 313.527344 C 228.902344 314.917969 227.445312 316.238281 225.925781 317.488281 C 224.402344 318.738281 222.824219 319.910156 221.1875 321 C 219.550781 322.09375 217.867188 323.105469 216.128906 324.035156 C 214.394531 324.960938 212.617188 325.800781 210.796875 326.554688 C 208.980469 327.308594 207.128906 327.96875 205.246094 328.542969 C 203.363281 329.113281 201.453125 329.589844 199.523438 329.976562 C 197.59375 330.359375 195.648438 330.648438 193.691406 330.839844 C 191.730469 331.035156 189.769531 331.128906 187.800781 331.128906 C 185.832031 331.128906 183.867188 331.035156 181.910156 330.839844 C 179.953125 330.648438 178.007812 330.359375 176.078125 329.976562 C 174.144531 329.589844 172.238281 329.113281 170.355469 328.542969 C 168.472656 327.96875 166.621094 327.308594 164.800781 326.554688 C 162.984375 325.800781 161.207031 324.960938 159.472656 324.035156 C 157.734375 323.105469 156.050781 322.09375 154.414062 321 C 152.777344 319.910156 151.199219 318.738281 149.675781 317.488281 C 148.15625 316.238281 146.699219 314.917969 145.304688 313.527344 C 143.914062 312.136719 142.59375 310.679688 141.34375 309.160156 C 140.097656 307.636719 138.925781 306.058594 137.832031 304.421875 C 136.738281 302.785156 135.726562 301.097656 134.800781 299.363281 C 133.871094 297.625 133.03125 295.851562 132.277344 294.03125 C 131.527344 292.214844 130.863281 290.363281 130.292969 288.480469 C 129.722656 286.59375 129.242188 284.6875 128.859375 282.757812 C 128.476562 280.828125 128.1875 278.882812 127.992188 276.925781 C 127.800781 274.964844 127.703125 273 127.703125 271.035156 Z M 226.742188 345.554688 L 221.875 334.554688 C 225.246094 332.738281 228.453125 330.664062 231.492188 328.332031 C 234.535156 326.003906 237.371094 323.449219 240.007812 320.664062 C 242.640625 317.882812 245.035156 314.910156 247.195312 311.746094 C 249.355469 308.582031 251.253906 305.269531 252.882812 301.804688 L 264.183594 306.128906 C 262.238281 310.324219 259.96875 314.332031 257.371094 318.152344 C 254.769531 321.976562 251.882812 325.5625 248.699219 328.914062 C 245.515625 332.265625 242.082031 335.335938 238.398438 338.128906 C 234.714844 340.921875 230.828125 343.394531 226.742188 345.554688 Z M 226.742188 345.554688 " fill-opacity="1" fill-rule="nonzero"/><path fill="#f4dc5f" d="M 350.058594 349.160156 L 362.078125 349.160156 L 362.078125 361.179688 L 350.058594 361.179688 Z M 350.058594 349.160156 " fill-opacity="1" fill-rule="nonzero"/><path fill="#f4dc5f" d="M 350.058594 180.890625 L 362.078125 180.890625 L 362.078125 192.910156 L 350.058594 192.910156 Z M 350.058594 180.890625 " fill-opacity="1" fill-rule="nonzero"/><path fill="#f4dc5f" d="M 193.808594 222.957031 L 181.789062 222.957031 L 181.789062 234.976562 L 169.773438 234.976562 C 169.378906 234.976562 168.984375 235.015625 168.597656 235.089844 C 168.210938 235.167969 167.835938 235.28125 167.472656 235.433594 C 167.105469 235.585938 166.761719 235.769531 166.433594 235.988281 C 166.105469 236.207031 165.800781 236.457031 165.523438 236.734375 C 165.242188 237.015625 164.992188 237.320312 164.773438 237.648438 C 164.554688 237.976562 164.371094 238.320312 164.21875 238.6875 C 164.070312 239.050781 163.953125 239.425781 163.878906 239.8125 C 163.800781 240.199219 163.761719 240.589844 163.761719 240.984375 L 163.761719 271.035156 C 163.761719 271.429688 163.800781 271.820312 163.878906 272.207031 C 163.953125 272.59375 164.070312 272.96875 164.21875 273.332031 C 164.371094 273.699219 164.554688 274.042969 164.773438 274.371094 C 164.992188 274.699219 165.242188 275.003906 165.523438 275.28125 C 165.800781 275.5625 166.105469 275.8125 166.433594 276.03125 C 166.761719 276.25 167.105469 276.433594 167.472656 276.585938 C 167.835938 276.738281 168.210938 276.851562 168.597656 276.925781 C 168.984375 277.003906 169.378906 277.042969 169.773438 277.042969 L 199.820312 277.042969 L 199.820312 295.070312 L 163.761719 295.070312 L 163.761719 307.089844 L 181.789062 307.089844 L 181.789062 319.109375 L 193.808594 319.109375 L 193.808594 307.089844 L 205.828125 307.089844 C 206.222656 307.089844 206.613281 307.054688 207 306.976562 C 207.390625 306.898438 207.765625 306.785156 208.128906 306.632812 C 208.492188 306.484375 208.839844 306.296875 209.167969 306.078125 C 209.496094 305.859375 209.800781 305.609375 210.078125 305.332031 C 210.359375 305.050781 210.605469 304.75 210.824219 304.421875 C 211.046875 304.09375 211.230469 303.746094 211.382812 303.382812 C 211.53125 303.015625 211.644531 302.640625 211.722656 302.253906 C 211.800781 301.867188 211.839844 301.476562 211.839844 301.082031 L 211.839844 271.035156 C 211.839844 270.640625 211.800781 270.25 211.722656 269.859375 C 211.644531 269.472656 211.53125 269.097656 211.382812 268.734375 C 211.230469 268.371094 211.046875 268.023438 210.824219 267.695312 C 210.605469 267.367188 210.359375 267.0625 210.078125 266.785156 C 209.800781 266.503906 209.496094 266.257812 209.167969 266.035156 C 208.839844 265.816406 208.492188 265.632812 208.128906 265.480469 C 207.765625 265.332031 207.390625 265.214844 207 265.140625 C 206.613281 265.0625 206.222656 265.023438 205.828125 265.023438 L 175.78125 265.023438 L 175.78125 246.996094 L 211.839844 246.996094 L 211.839844 234.976562 L 193.808594 234.976562 Z M 193.808594 222.957031 " fill-opacity="1" fill-rule="nonzero"/></svg>